<?xml version="1.0" encoding="UTF-8" standalone="no"?>
<!DOCTYPE svg PUBLIC "-//W3C//DTD SVG 1.1//EN"
 "http://www.w3.org/Graphics/SVG/1.1/DTD/svg11.dtd">
<!-- Generated by graphviz version 2.40.1 (20161225.0304)
 -->
<!-- Title: %3 Pages: 1 -->
<svg width="571pt" height="476pt"
 viewBox="0.00 0.00 570.74 476.00" xmlns="http://www.w3.org/2000/svg" xmlns:xlink="http://www.w3.org/1999/xlink">
<g id="graph0" class="graph" transform="scale(1 1) rotate(0) translate(4 472)">
<title>%3</title>
<polygon fill="#ffffff" stroke="transparent" points="-4,4 -4,-472 566.7428,-472 566.7428,4 -4,4"/>
<!-- [root] oci_core_subnet.techflow_subnet -->
<g id="node1" class="node">
<title>[root] oci_core_subnet.techflow_subnet</title>
<polygon fill="none" stroke="#000000" points="465,-252 308,-252 308,-216 465,-216 465,-252"/>
<text text-anchor="middle" x="386.5" y="-230.3" font-family="Times,serif" font-size="14.00" fill="#000000">oci_core_subnet.techflow_subnet</text>
</g>
<!-- [root] oci_core_vcn.techflow_vcn -->
<g id="node2" class="node">
<title>[root] oci_core_vcn.techflow_vcn</title>
<polygon fill="none" stroke="#000000" points="378.5,-180 246.5,-180 246.5,-144 378.5,-144 378.5,-180"/>
<text text-anchor="middle" x="312.5" y="-158.3" font-family="Times,serif" font-size="14.00" fill="#000000">oci_core_vcn.techflow_vcn</text>
</g>
<!-- [root] oci_core_subnet.techflow_subnet&#45;&gt;[root] oci_core_vcn.techflow_vcn -->
<g id="edge3" class="edge">
<title>[root] oci_core_subnet.techflow_subnet&#45;&gt;[root] oci_core_vcn.techflow_vcn</title>
<path fill="none" stroke="#000000" d="M367.8267,-215.8314C358.9751,-207.219 348.2514,-196.7851 338.6105,-187.4048"/>
<polygon fill="#000000" stroke="#000000" points="340.7754,-184.6279 331.1674,-180.1628 335.8939,-189.645 340.7754,-184.6279"/>
</g>
<!-- [root] provider.oci -->
<g id="node5" class="node">
<title>[root] provider.oci</title>
<polygon fill="none" stroke="#000000" points="247.5,-108 184.9946,-90 247.5,-72 310.0054,-90 247.5,-108"/>
<text text-anchor="middle" x="247.5" y="-86.3" font-family="Times,serif" font-size="14.00" fill="#000000">provider.oci</text>
</g>
<!-- [root] oci_core_vcn.techflow_vcn&#45;&gt;[root] provider.oci -->
<g id="edge4" class="edge">
<title>[root] oci_core_vcn.techflow_vcn&#45;&gt;[root] provider.oci</title>
<path fill="none" stroke="#000000" d="M296.0978,-143.8314C287.4324,-134.2329 276.7246,-122.3718 267.5673,-112.2284"/>
<polygon fill="#000000" stroke="#000000" points="269.9234,-109.6151 260.6244,-104.5378 264.7275,-114.3059 269.9234,-109.6151"/>
</g>
<!-- [root] var.compartment_id -->
<g id="node6" class="node">
<title>[root] var.compartment_id</title>
<polygon fill="none" stroke="#000000" points="423,-108 328,-108 328,-72 429,-72 429,-102 423,-108"/>
<polyline fill="none" stroke="#000000" points="423,-108 423,-102 "/>
<polyline fill="none" stroke="#000000" points="429,-102 423,-102 "/>
<text text-anchor="middle" x="378.5" y="-86.3" font-family="Times,serif" font-size="14.00" fill="#000000">var.compartment_id</text>
</g>
<!-- [root] oci_core_vcn.techflow_vcn&#45;&gt;[root] var.compartment_id -->
<g id="edge5" class="edge">
<title>[root] oci_core_vcn.techflow_vcn&#45;&gt;[root] var.compartment_id</title>
<path fill="none" stroke="#000000" d="M329.1546,-143.8314C336.9114,-135.3694 346.2802,-125.1489 354.761,-115.8971"/>
<polygon fill="#000000" stroke="#000000" points="357.4439,-118.1499 361.6212,-108.4133 352.2838,-113.4198 357.4439,-118.1499"/>
</g>
<!-- [root] output.techflow_subnet -->
<g id="node3" class="node">
<title>[root] output.techflow_subnet</title>
<polygon fill="none" stroke="#000000" points="376,-324 267,-324 267,-288 382,-288 382,-318 376,-324"/>
<polyline fill="none" stroke="#000000" points="376,-324 376,-318 "/>
<polyline fill="none" stroke="#000000" points="382,-318 376,-318 "/>
<text text-anchor="middle" x="324.5" y="-302.3" font-family="Times,serif" font-size="14.00" fill="#000000">output.techflow_subnet</text>
</g>
<!-- [root] output.techflow_subnet&#45;&gt;[root] oci_core_subnet.techflow_subnet -->
<g id="edge6" class="edge">
<title>[root] output.techflow_subnet&#45;&gt;[root] oci_core_subnet.techflow_subnet</title>
<path fill="none" stroke="#000000" d="M340.1452,-287.8314C347.3591,-279.454 356.057,-269.3531 363.9605,-260.1749"/>
<polygon fill="#000000" stroke="#000000" points="366.7711,-262.2748 370.6441,-252.4133 361.4667,-257.7071 366.7711,-262.2748"/>
</g>
<!-- [root] output.techflow_vcn -->
<g id="node4" class="node">
<title>[root] output.techflow_vcn</title>
<polygon fill="none" stroke="#000000" points="284,-252 187,-252 187,-216 290,-216 290,-246 284,-252"/>
<polyline fill="none" stroke="#000000" points="284,-252 284,-246 "/>
<polyline fill="none" stroke="#000000" points="290,-246 284,-246 "/>
<text text-anchor="middle" x="238.5" y="-230.3" font-family="Times,serif" font-size="14.00" fill="#000000">output.techflow_vcn</text>
</g>
<!-- [root] output.techflow_vcn&#45;&gt;[root] oci_core_vcn.techflow_vcn -->
<g id="edge7" class="edge">
<title>[root] output.techflow_vcn&#45;&gt;[root] oci_core_vcn.techflow_vcn</title>
<path fill="none" stroke="#000000" d="M257.1733,-215.8314C266.0249,-207.219 276.7486,-196.7851 286.3895,-187.4048"/>
<polygon fill="#000000" stroke="#000000" points="289.1061,-189.645 293.8326,-180.1628 284.2246,-184.6279 289.1061,-189.645"/>
</g>
<!-- [root] var.fingerprint -->
<g id="node7" class="node">
<title>[root] var.fingerprint</title>
<polygon fill="none" stroke="#000000" points="71,-36 0,-36 0,0 77,0 77,-30 71,-36"/>
<polyline fill="none" stroke="#000000" points="71,-36 71,-30 "/>
<polyline fill="none" stroke="#000000" points="77,-30 71,-30 "/>
<text text-anchor="middle" x="38.5" y="-14.3" font-family="Times,serif" font-size="14.00" fill="#000000">var.fingerprint</text>
</g>
<!-- [root] provider.oci&#45;&gt;[root] var.fingerprint -->
<g id="edge9" class="edge">
<title>[root] provider.oci&#45;&gt;[root] var.fingerprint</title>
<path fill="none" stroke="#000000" d="M217.8045,-80.5349C187.1227,-70.6606 137.6468,-54.4751 86.7036,-36.3696"/>
<polygon fill="#000000" stroke="#000000" points="87.7731,-33.0351 77.1785,-32.9677 85.4187,-39.6273 87.7731,-33.0351"/>
</g>
<!-- [root] var.private_key_path -->
<g id="node8" class="node">
<title>[root] var.private_key_path</title>
<polygon fill="none" stroke="#000000" points="194,-36 95,-36 95,0 200,0 200,-30 194,-36"/>
<polyline fill="none" stroke="#000000" points="194,-36 194,-30 "/>
<polyline fill="none" stroke="#000000" points="200,-30 194,-30 "/>
<text text-anchor="middle" x="147.5" y="-14.3" font-family="Times,serif" font-size="14.00" fill="#000000">var.private_key_path</text>
</g>
<!-- [root] provider.oci&#45;&gt;[root] var.private_key_path -->
<g id="edge10" class="edge">
<title>[root] provider.oci&#45;&gt;[root] var.private_key_path</title>
<path fill="none" stroke="#000000" d="M229.622,-77.1278C216.1312,-67.4145 197.2299,-53.8055 180.9612,-42.092"/>
<polygon fill="#000000" stroke="#000000" points="182.8967,-39.1728 172.7362,-36.1701 178.8065,-44.8536 182.8967,-39.1728"/>
</g>
<!-- [root] var.region -->
<g id="node9" class="node">
<title>[root] var.region</title>
<polygon fill="none" stroke="#000000" points="271,-36 218,-36 218,0 277,0 277,-30 271,-36"/>
<polyline fill="none" stroke="#000000" points="271,-36 271,-30 "/>
<polyline fill="none" stroke="#000000" points="277,-30 271,-30 "/>
<text text-anchor="middle" x="247.5" y="-14.3" font-family="Times,serif" font-size="14.00" fill="#000000">var.region</text>
</g>
<!-- [root] provider.oci&#45;&gt;[root] var.region -->
<g id="edge11" class="edge">
<title>[root] provider.oci&#45;&gt;[root] var.region</title>
<path fill="none" stroke="#000000" d="M247.5,-71.8314C247.5,-64.131 247.5,-54.9743 247.5,-46.4166"/>
<polygon fill="#000000" stroke="#000000" points="251.0001,-46.4132 247.5,-36.4133 244.0001,-46.4133 251.0001,-46.4132"/>
</g>
<!-- [root] var.tenancy_id -->
<g id="node10" class="node">
<title>[root] var.tenancy_id</title>
<polygon fill="none" stroke="#000000" points="368,-36 295,-36 295,0 374,0 374,-30 368,-36"/>
<polyline fill="none" stroke="#000000" points="368,-36 368,-30 "/>
<polyline fill="none" stroke="#000000" points="374,-30 368,-30 "/>
<text text-anchor="middle" x="334.5" y="-14.3" font-family="Times,serif" font-size="14.00" fill="#000000">var.tenancy_id</text>
</g>
<!-- [root] provider.oci&#45;&gt;[root] var.tenancy_id -->
<g id="edge12" class="edge">
<title>[root] provider.oci&#45;&gt;[root] var.tenancy_id</title>
<path fill="none" stroke="#000000" d="M263.864,-76.4574C275.3851,-66.9227 291.1345,-53.8887 304.8385,-42.5474"/>
<polygon fill="#000000" stroke="#000000" points="307.151,-45.1768 312.6234,-36.1047 302.688,-39.7841 307.151,-45.1768"/>
</g>
<!-- [root] var.user_id -->
<g id="node11" class="node">
<title>[root] var.user_id</title>
<polygon fill="none" stroke="#000000" points="449,-36 392,-36 392,0 455,0 455,-30 449,-36"/>
<polyline fill="none" stroke="#000000" points="449,-36 449,-30 "/>
<polyline fill="none" stroke="#000000" points="455,-30 449,-30 "/>
<text text-anchor="middle" x="423.5" y="-14.3" font-family="Times,serif" font-size="14.00" fill="#000000">var.user_id</text>
</g>
<!-- [root] provider.oci&#45;&gt;[root] var.user_id -->
<g id="edge13" class="edge">
<title>[root] provider.oci&#45;&gt;[root] var.user_id</title>
<path fill="none" stroke="#000000" d="M274.246,-79.6039C301.5597,-68.9163 345.1376,-51.6689 382.5,-36 382.5941,-35.9605 382.6883,-35.921 382.7826,-35.8814"/>
<polygon fill="#000000" stroke="#000000" points="383.9314,-39.1964 391.7607,-32.0583 381.1888,-32.756 383.9314,-39.1964"/>
</g>
<!-- [root] meta.count&#45;boundary (EachMode fixup) -->
<g id="node12" class="node">
<title>[root] meta.count&#45;boundary (EachMode fixup)</title>
<ellipse fill="none" stroke="#000000" cx="315.5" cy="-378" rx="137.5759" ry="18"/>
<text text-anchor="middle" x="315.5" y="-374.3" font-family="Times,serif" font-size="14.00" fill="#000000">[root] meta.count&#45;boundary (EachMode fixup)</text>
</g>
<!-- [root] meta.count&#45;boundary (EachMode fixup)&#45;&gt;[root] output.techflow_subnet -->
<g id="edge1" class="edge">
<title>[root] meta.count&#45;boundary (EachMode fixup)&#45;&gt;[root] output.techflow_subnet</title>
<path fill="none" stroke="#000000" d="M317.7711,-359.8314C318.7336,-352.131 319.8782,-342.9743 320.9479,-334.4166"/>
<polygon fill="#000000" stroke="#000000" points="324.4309,-334.7702 322.1983,-324.4133 317.4849,-333.9019 324.4309,-334.7702"/>
</g>
<!-- [root] meta.count&#45;boundary (EachMode fixup)&#45;&gt;[root] output.techflow_vcn -->
<g id="edge2" class="edge">
<title>[root] meta.count&#45;boundary (EachMode fixup)&#45;&gt;[root] output.techflow_vcn</title>
<path fill="none" stroke="#000000" d="M290.074,-360.1623C278.4372,-350.7093 265.4901,-338.1322 257.5,-324 246.7907,-305.0583 242.0989,-280.7835 240.0529,-262.2189"/>
<polygon fill="#000000" stroke="#000000" points="243.5179,-261.6745 239.1284,-252.0317 236.5466,-262.3071 243.5179,-261.6745"/>
</g>
<!-- [root] provider.oci (close) -->
<g id="node13" class="node">
<title>[root] provider.oci (close)</title>
<ellipse fill="none" stroke="#000000" cx="481.5" cy="-306" rx="81.4863" ry="18"/>
<text text-anchor="middle" x="481.5" y="-302.3" font-family="Times,serif" font-size="14.00" fill="#000000">[root] provider.oci (close)</text>
</g>
<!-- [root] provider.oci (close)&#45;&gt;[root] oci_core_subnet.techflow_subnet -->
<g id="edge8" class="edge">
<title>[root] provider.oci (close)&#45;&gt;[root] oci_core_subnet.techflow_subnet</title>
<path fill="none" stroke="#000000" d="M458.5031,-288.5708C446.5209,-279.4896 431.6741,-268.2372 418.5806,-258.3137"/>
<polygon fill="#000000" stroke="#000000" points="420.361,-255.2714 410.2772,-252.0206 416.1328,-260.8502 420.361,-255.2714"/>
</g>
<!-- [root] root -->
<g id="node14" class="node">
<title>[root] root</title>
<ellipse fill="none" stroke="#000000" cx="398.5" cy="-450" rx="38.9931" ry="18"/>
<text text-anchor="middle" x="398.5" y="-446.3" font-family="Times,serif" font-size="14.00" fill="#000000">[root] root</text>
</g>
<!-- [root] root&#45;&gt;[root] meta.count&#45;boundary (EachMode fixup) -->
<g id="edge14" class="edge">
<title>[root] root&#45;&gt;[root] meta.count&#45;boundary (EachMode fixup)</title>
<path fill="none" stroke="#000000" d="M380.0796,-434.0209C369.4234,-424.777 355.7904,-412.9507 343.7989,-402.5485"/>
<polygon fill="#000000" stroke="#000000" points="346.051,-399.8687 336.2036,-395.9597 341.464,-405.1564 346.051,-399.8687"/>
</g>
<!-- [root] root&#45;&gt;[root] provider.oci (close) -->
<g id="edge15" class="edge">
<title>[root] root&#45;&gt;[root] provider.oci (close)</title>
<path fill="none" stroke="#000000" d="M422.3835,-435.6395C436.1952,-426.1016 452.7249,-412.3444 462.5,-396 473.7209,-377.2382 478.3742,-352.8063 480.2753,-334.1334"/>
<polygon fill="#000000" stroke="#000000" points="483.7643,-334.4098 481.0891,-324.1583 476.7875,-333.8405 483.7643,-334.4098"/>
</g>
</g>
</svg>
